<?xml version="1.0" encoding="utf-8"?>
<!-- Generator: Adobe Illustrator 16.0.0, SVG Export Plug-In . SVG Version: 6.00 Build 0)  -->
<!DOCTYPE svg PUBLIC "-//W3C//DTD SVG 1.1//EN" "http://www.w3.org/Graphics/SVG/1.1/DTD/svg11.dtd">
<svg version="1.1" id="图层_1" xmlns="http://www.w3.org/2000/svg" xmlns:xlink="http://www.w3.org/1999/xlink" x="0px" y="0px"
	 width="130.624px" height="129px" viewBox="0 0 130.624 129" enable-background="new 0 0 130.624 129" xml:space="preserve">
<g>
	<g>
		<defs>
			<path id="SVGID_1_" d="M60.137,107.791C60.123,119.55,69.23,128.926,80.74,129c11.276,0.072,20.425-9.236,20.469-20.828
				c0.047-12.013-8.967-21.136-20.932-21.188c-0.028-0.001-0.054-0.001-0.082-0.001C69.289,86.984,60.149,96.453,60.137,107.791"/>
		</defs>
		<clipPath id="SVGID_2_">
			<use xlink:href="#SVGID_1_"  overflow="visible"/>
		</clipPath>
		
			<radialGradient id="SVGID_3_" cx="155.5625" cy="683.9609" r="1.0013" gradientTransform="matrix(20.774 0 0 -20.774 -3150.9624 14316.6328)" gradientUnits="userSpaceOnUse">
			<stop  offset="0" style="stop-color:#92C363"/>
			<stop  offset="0.3695" style="stop-color:#8AC074"/>
			<stop  offset="0.6814" style="stop-color:#6DB4B3"/>
			<stop  offset="1" style="stop-color:#1FA0AB"/>
			<stop  offset="1" style="stop-color:#1FA0AB"/>
		</radialGradient>
		<rect x="60.123" y="86.982" clip-path="url(#SVGID_2_)" fill="url(#SVGID_3_)" width="41.133" height="42.09"/>
	</g>
	<path fill="#185C72" d="M52.369,46.903c1.43,1.44,2.85,2.89,4.271,4.34c-40.29-9.32-30.931,32.17-30.931,32.17
		c-2.979-2.78-6.299-5.25-8.879-8.37c-10.361-12.58-5.701-30.91,9-35.72C36.27,35.903,44.969,39.433,52.369,46.903"/>
	<g>
		<defs>
			<path id="SVGID_4_" d="M37.5,8.723C13.379,21.653,0.939,42.193,0,68.153c0.31,15.19,3.27,28.239,10.02,40.229
				c3.311,5.881,7.12,11.5,13.47,14.69c7.38,3.71,13.31,2.77,19.021-3.04c4.82-4.91,6.02-11.37,1.31-17.75
				c-4.83-6.529-11.17-11.96-16.96-17.76c-0.37-0.37-0.76-0.74-1.15-1.11c-2.979-2.78-6.299-5.25-8.879-8.37
				c-10.361-12.58-5.701-30.91,9-35.72c10.439-3.42,19.139,0.11,26.539,7.58c1.43,1.44,2.85,2.89,4.271,4.34
				c5.729,5.85,11.42,11.75,17.17,17.58c12.08,12.271,30.79,12.76,44.18,1.931c15.54-12.581,15.71-34.94,6.13-45.571
				c-4.779-5.31-10.229-10.42-16.319-14.06C95.543,3.813,83.021-0.001,70.381,0C59.474,0,48.478,2.841,37.5,8.723"/>
		</defs>
		<clipPath id="SVGID_5_">
			<use xlink:href="#SVGID_4_"  overflow="visible"/>
		</clipPath>
		
			<radialGradient id="SVGID_6_" cx="168.6895" cy="678.584" r="1.0005" gradientTransform="matrix(63.99 0 0 -63.99 -10729.1416 43485.3242)" gradientUnits="userSpaceOnUse">
			<stop  offset="0" style="stop-color:#92C363"/>
			<stop  offset="0.3695" style="stop-color:#8AC074"/>
			<stop  offset="0.6814" style="stop-color:#6DB4B3"/>
			<stop  offset="1" style="stop-color:#1FA0AB"/>
			<stop  offset="1" style="stop-color:#1FA0AB"/>
		</radialGradient>
		<rect y="-0.001" clip-path="url(#SVGID_5_)" fill="url(#SVGID_6_)" width="133.699" height="126.784"/>
	</g>
	<g opacity="0.3">
		<g>
			<defs>
				<rect id="SVGID_7_" y="21.011" width="123.939" height="104.268"/>
			</defs>
			<clipPath id="SVGID_8_">
				<use xlink:href="#SVGID_7_"  overflow="visible"/>
			</clipPath>
			<g clip-path="url(#SVGID_8_)">
				<defs>
					<rect id="SVGID_9_" y="21.011" width="123.939" height="104.268"/>
				</defs>
				<clipPath id="SVGID_10_">
					<use xlink:href="#SVGID_9_"  overflow="visible"/>
				</clipPath>
				<g clip-path="url(#SVGID_10_)">
					<defs>
						<rect id="SVGID_11_" y="21.011" width="123.939" height="104.268"/>
					</defs>
					<clipPath id="SVGID_12_">
						<use xlink:href="#SVGID_11_"  overflow="visible"/>
					</clipPath>
					<path clip-path="url(#SVGID_12_)" fill="#185C72" d="M56.64,51.243c-1.421-1.45-2.841-2.9-4.271-4.34
						c-7.4-7.47-16.1-11-26.539-7.58c-14.701,4.81-19.361,23.14-9,35.72c2.58,3.12,5.899,5.59,8.879,8.37
						c0.391,0.37,0.78,0.74,1.15,1.11c5.79,5.8,12.13,11.23,16.96,17.76c4.71,6.38,3.511,12.84-1.31,17.75
						c-5.711,5.81-11.641,6.75-19.021,3.04c-6.35-3.19-10.159-8.81-13.47-14.69C3.27,96.393,0.31,83.344,0,68.153
						c0.549-15.12,5-28.4,13.399-39.41l0.21,0.16c0,0,60.52-32.89,110.33,35.62c-1.64,2.25-3.62,4.35-5.95,6.23
						c-13.39,10.83-32.1,10.34-44.18-1.931C68.06,62.993,62.369,57.093,56.64,51.243"/>
				</g>
			</g>
		</g>
	</g>
</g>
</svg>
